<mxfile host="app.diagrams.net" modified="2023-06-07T09:02:21.778Z" agent="Mozilla/5.0 (Windows NT 10.0; Win64; x64) AppleWebKit/537.36 (KHTML, like Gecko) Chrome/114.0.0.0 Safari/537.36" etag="D0QzE5Hb_A4NmDP8h7KT" version="21.3.7" type="github">
  <diagram name="Page-1" id="Dm-Yi2EOX0WjCGcSCMtt">
    <mxGraphModel dx="1050" dy="1641" grid="1" gridSize="10" guides="1" tooltips="1" connect="1" arrows="1" fold="1" page="1" pageScale="1" pageWidth="850" pageHeight="1100" math="0" shadow="0">
      <root>
        <mxCell id="0" />
        <mxCell id="1" parent="0" />
        <mxCell id="6fgZzd5wHrGrk1cmSgJW-5" value="Piece&lt;br&gt;&lt;div style=&quot;text-align: left;&quot;&gt;&lt;span style=&quot;background-color: initial;&quot;&gt;- bool is_on_board&lt;/span&gt;&lt;/div&gt;&lt;div style=&quot;text-align: left;&quot;&gt;&lt;span style=&quot;background-color: initial;&quot;&gt;- bool is_under_threat&lt;/span&gt;&lt;/div&gt;&lt;div style=&quot;text-align: left;&quot;&gt;- bool is_protecting_king&lt;/div&gt;&lt;div style=&quot;text-align: left;&quot;&gt;- bool has_moved&lt;/div&gt;&lt;div style=&quot;text-align: left;&quot;&gt;- Color color&lt;/div&gt;&lt;div style=&quot;text-align: left;&quot;&gt;- int score&lt;/div&gt;&lt;div style=&quot;text-align: left;&quot;&gt;&lt;br&gt;&lt;/div&gt;&lt;div style=&quot;text-align: left;&quot;&gt;+ bool canMove()&lt;/div&gt;&lt;div style=&quot;text-align: left;&quot;&gt;+ vector&amp;lt;Move&amp;gt; getAllPossibleMoves()&lt;/div&gt;&lt;div style=&quot;text-align: left;&quot;&gt;&amp;nbsp;&lt;/div&gt;" style="rounded=1;whiteSpace=wrap;html=1;" parent="1" vertex="1">
          <mxGeometry x="370" y="-80" width="260" height="290" as="geometry" />
        </mxCell>
        <mxCell id="6fgZzd5wHrGrk1cmSgJW-8" value="Enum Color&lt;br&gt;white = 0&lt;br&gt;black = 1" style="rounded=0;whiteSpace=wrap;html=1;" parent="1" vertex="1">
          <mxGeometry x="60" y="-160" width="120" height="60" as="geometry" />
        </mxCell>
        <mxCell id="6fgZzd5wHrGrk1cmSgJW-9" value="Move&lt;br&gt;&lt;div style=&quot;text-align: left;&quot;&gt;&lt;span style=&quot;background-color: initial;&quot;&gt;- shared_ptr&amp;lt;Position&amp;gt; source_position&lt;/span&gt;&lt;/div&gt;&lt;div style=&quot;text-align: left;&quot;&gt;&lt;span style=&quot;background-color: initial;&quot;&gt;- shared_ptr&amp;lt;Position&amp;gt; destination_position&lt;/span&gt;&lt;/div&gt;&lt;div style=&quot;text-align: left;&quot;&gt;&lt;span style=&quot;background-color: initial;&quot;&gt;- int score&lt;/span&gt;&lt;/div&gt;" style="rounded=1;whiteSpace=wrap;html=1;align=center;" parent="1" vertex="1">
          <mxGeometry x="700" y="-80" width="250" height="290" as="geometry" />
        </mxCell>
        <mxCell id="6fgZzd5wHrGrk1cmSgJW-10" value="Board&lt;br&gt;&lt;div style=&quot;text-align: left;&quot;&gt;&lt;span style=&quot;background-color: initial;&quot;&gt;- Position[8][8] board&lt;/span&gt;&lt;/div&gt;&lt;div style=&quot;text-align: left;&quot;&gt;&lt;br&gt;&lt;/div&gt;&lt;div style=&quot;text-align: left;&quot;&gt;+ isMoveLegal()&lt;/div&gt;" style="rounded=1;whiteSpace=wrap;html=1;" parent="1" vertex="1">
          <mxGeometry x="50" y="-80" width="260" height="290" as="geometry" />
        </mxCell>
        <mxCell id="6fgZzd5wHrGrk1cmSgJW-11" value="Position&lt;br&gt;&lt;div style=&quot;text-align: left;&quot;&gt;&lt;span style=&quot;background-color: initial;&quot;&gt;- short x_position&lt;/span&gt;&lt;/div&gt;&lt;div style=&quot;text-align: left;&quot;&gt;&lt;span style=&quot;background-color: initial;&quot;&gt;- short y_position&lt;/span&gt;&lt;/div&gt;&lt;div style=&quot;text-align: left;&quot;&gt;- Piece piece&lt;/div&gt;&lt;div style=&quot;text-align: left;&quot;&gt;- Color color&lt;/div&gt;" style="rounded=1;whiteSpace=wrap;html=1;align=center;" parent="1" vertex="1">
          <mxGeometry x="370" y="240" width="260" height="290" as="geometry" />
        </mxCell>
      </root>
    </mxGraphModel>
  </diagram>
</mxfile>
